<svg width="1319" height="254" viewBox="0 0 1319 254" fill="none" xmlns="http://www.w3.org/2000/svg">
<mask id="mask0_2_1297" style="mask-type:alpha" maskUnits="userSpaceOnUse" x="0" y="0" width="1319" height="254">
<rect width="1319" height="254" fill="#D9D9D9"/>
</mask>
<g mask="url(#mask0_2_1297)">
<mask id="path-2-inside-1_2_1297" fill="white">
<path fill-rule="evenodd" clip-rule="evenodd" d="M1159 63.5C1159 52.7304 1167.73 44 1178.5 44C1189.27 44 1198 52.7304 1198 63.5V77.8772C1199.49 78.0345 1200.95 78.2 1202.39 78.3739C1221.25 80.6465 1236.48 84.3435 1247.59 89.5301C1258.69 94.7149 1265.75 101.425 1268.11 109.758C1270.48 118.091 1268 127.508 1261.28 137.755C1254.56 148.006 1243.54 159.155 1228.7 170.999C1226.55 172.711 1224.32 174.437 1222.02 176.179C1224.19 176.571 1226.31 176.978 1228.38 177.399C1239.91 179.736 1250.01 182.506 1258.55 185.715C1262.63 179.275 1269.82 175 1278 175C1290.7 175 1301 185.297 1301 198C1301 205.552 1297.36 212.254 1291.74 216.447C1292.41 224.234 1289.12 232.57 1282.33 241.302C1274.81 250.982 1262.94 261.214 1247.19 271.832C1234.28 280.536 1218.75 289.511 1200.84 298.663C1218.41 302.131 1234.04 306.012 1247.53 310.29C1265.63 316.033 1279.9 322.5 1289.85 329.663C1299.8 336.824 1305.48 344.731 1306.26 353.358C1307.03 361.986 1302.84 370.778 1294.33 379.595C1285.82 388.415 1272.92 397.319 1256.13 406.192C1222.54 423.941 1173.25 441.623 1111.9 458.257C989.213 491.527 818.224 520.634 628.015 537.698C437.807 554.762 264.368 556.554 137.713 545.652C74.3904 540.202 22.7374 531.577 -13.4755 520.09C-31.5798 514.347 -45.8545 507.88 -55.8026 500.717C-65.7474 493.556 -71.433 485.649 -72.207 477.022C-72.981 468.394 -68.7934 459.602 -60.282 450.785C-51.7678 441.965 -38.872 433.061 -22.079 424.187C-20.7589 423.49 -19.4147 422.793 -18.0464 422.095C11.5929 399.563 54.6059 374.612 108.187 348.595C222.542 293.069 385.125 232.644 568.834 180.475C628.369 163.568 686.472 148.565 742.123 135.57C741.389 132.5 741 129.295 741 126C741 103.356 759.356 85 782 85C801.868 85 818.436 99.1323 822.198 117.893C906.717 100.352 983.725 88.0472 1049.09 81.3992C1090.82 77.1541 1127.82 75.2145 1159 75.6936V63.5ZM1159 93.5V76.6937C1127.88 76.2146 1090.91 78.1501 1049.19 82.3941C983.86 89.0387 906.879 101.339 822.383 118.876C822.788 121.19 823 123.57 823 126C823 148.644 804.644 167 782 167C763 167 747.019 154.076 742.367 136.54C686.728 149.532 628.635 164.532 569.107 181.437C385.437 233.595 222.912 294.001 108.624 349.495C57.673 374.234 16.3267 397.989 -13.0289 419.592C-10.3792 418.297 -7.64733 417.002 -4.8348 415.709C25.6834 397.576 66.6671 378.477 116.067 359.207C234.498 313.009 401.394 265.786 588.688 228.482C720.54 202.221 844.939 184.374 951.375 175.165C954.235 153.069 973.124 136 996 136C1016.82 136 1034.33 150.133 1039.47 169.327C1051.78 168.788 1063.74 168.395 1075.33 168.149C1134.6 166.888 1184.07 169.46 1220.67 175.938C1223.24 174.013 1225.7 172.106 1228.07 170.217C1242.88 158.404 1253.8 147.331 1260.44 137.207C1267.09 127.079 1269.41 117.968 1267.15 110.031C1264.9 102.093 1258.14 95.5609 1247.16 90.4362C1236.19 85.3132 1221.08 81.6334 1202.27 79.3667C1200.87 79.1975 1199.44 79.0362 1198 78.8828V93.5C1198 104.27 1189.27 113 1178.5 113C1167.73 113 1159 104.27 1159 93.5ZM951.255 176.18C951.086 177.763 951 179.372 951 181C951 205.853 971.147 226 996 226C1020.85 226 1041 205.853 1041 181C1041 177.319 1040.56 173.741 1039.72 170.317C1051.96 169.783 1063.84 169.394 1075.35 169.149C1134.1 167.899 1183.16 170.418 1219.57 176.76C1190.13 198.693 1148.17 222.884 1096.24 248.099C1074.51 258.651 1051.04 269.381 1026 280.198C908.71 274.915 763.089 278.592 606.035 292.682C415.826 309.746 244.837 338.853 122.146 372.123C75.0636 384.891 35.0793 398.275 3.84551 411.833C33.297 395.162 71.3395 377.728 116.431 360.139C234.792 313.967 401.629 266.759 588.883 229.463C720.624 203.224 844.91 185.389 951.255 176.18ZM1255 198C1255 193.846 1256.1 189.949 1258.03 186.586C1249.59 183.43 1239.6 180.694 1228.19 178.379C1225.83 177.901 1223.41 177.441 1220.93 176.999C1191.37 199.136 1149.08 223.557 1096.68 248.998C1075.48 259.292 1052.62 269.755 1028.28 280.302C1052.2 281.406 1074.94 282.886 1096.34 284.728C1135.37 288.087 1169.96 292.653 1199.25 298.351C1217.61 289.015 1233.49 279.865 1246.63 271.003C1262.34 260.412 1274.11 250.249 1281.54 240.688C1288.07 232.287 1291.21 224.4 1290.79 217.122C1287.13 219.571 1282.73 221 1278 221C1265.3 221 1255 210.703 1255 198ZM1023.9 281.105C907.02 275.96 762.229 279.674 606.124 293.678C415.955 310.738 245.027 339.837 122.408 373.088C70.8897 387.059 27.9161 401.757 -4.3693 416.596C-10.3975 420.179 -16.0146 423.723 -21.2049 427.223C-25.6632 430.229 -29.8044 433.2 -33.6194 436.134C-43.2283 444.691 -50.6018 452.805 -55.5751 460.386C-62.2187 470.514 -64.5365 479.625 -62.2824 487.562C-60.0284 495.5 -53.2683 502.032 -42.2932 507.157C-31.3218 512.28 -16.2109 515.96 2.59676 518.226C40.2075 522.759 92.4787 521.627 155.681 515.199C282.077 502.343 452.092 468.315 635.762 416.156C783.53 374.193 917.612 326.892 1023.9 281.105ZM-23.1526 427.336C-22.6931 427.022 -22.2302 426.708 -21.764 426.394C-18.9561 424.501 -16.0242 422.595 -12.9706 420.677C-14.5129 421.433 -16.027 422.189 -17.5126 422.946C-19.4504 424.42 -21.3307 425.883 -23.1526 427.336ZM-22.5022 425.544C-22.947 425.895 -23.3884 426.245 -23.8264 426.594C-27.5466 429.562 -31.0261 432.486 -34.2576 435.363C-43.9167 442.792 -51.5228 449.999 -56.9041 456.924C-64.424 466.6 -67.6475 475.789 -65.9554 484.285C-65.0749 488.706 -62.8928 492.79 -59.501 496.545C-66.6284 490.416 -70.5889 483.867 -71.211 476.932C-71.9483 468.714 -67.9752 460.194 -59.5626 451.48C-51.3024 442.923 -38.8149 434.237 -22.5022 425.544ZM-21.6973 516.278C-18.9608 517.249 -16.1188 518.202 -13.1731 519.137C22.9366 530.591 74.505 539.208 137.799 544.656C264.379 555.551 437.757 553.762 627.926 536.702C818.095 519.642 989.023 490.543 1111.64 457.292C1172.96 440.665 1222.17 423.007 1255.66 405.308C1272.41 396.458 1285.2 387.612 1293.61 378.9C1302.03 370.186 1306 361.666 1305.26 353.448C1304.52 345.229 1299.1 337.553 1289.27 330.475C1279.44 323.399 1265.28 316.971 1247.22 311.243C1233.46 306.877 1217.44 302.922 1199.39 299.399C1173.89 312.346 1143.66 325.641 1109.36 339.019C990.931 385.217 824.034 432.44 636.74 469.743C449.447 507.047 277.194 527.373 150.1 530.077C86.557 531.428 34.2779 528.375 -2.95564 520.826C-9.70049 519.459 -15.9556 517.943 -21.6973 516.278ZM1197.79 299.088C1168.83 293.513 1134.7 289.034 1096.25 285.724C1074.26 283.831 1050.85 282.321 1026.19 281.207C919.55 327.269 784.711 374.897 636.035 417.118C452.327 469.287 282.252 503.331 155.782 516.194C92.551 522.625 40.1953 523.765 2.47711 519.219C-7.81097 517.979 -17.0191 516.315 -25.0673 514.217C-18.3946 516.31 -10.9452 518.186 -2.75694 519.846C34.3706 527.374 86.5647 530.428 150.078 529.077C277.098 526.375 449.291 506.059 636.545 468.763C823.8 431.467 990.636 384.258 1109 338.087C1142.76 324.915 1172.58 311.831 1197.79 299.088ZM-61.0795 492.976C-62.0129 491.337 -62.7366 489.623 -63.2444 487.835C-65.6108 479.502 -63.1328 470.085 -56.4112 459.838C-53.3424 455.159 -49.38 450.294 -44.5672 445.26C-49.1535 449.449 -53.0124 453.546 -56.1145 457.537C-63.5472 467.101 -66.5864 475.997 -64.9747 484.089C-64.3539 487.207 -63.05 490.169 -61.0795 492.976Z"/>
</mask>
<path fill-rule="evenodd" clip-rule="evenodd" d="M1159 63.5C1159 52.7304 1167.73 44 1178.5 44C1189.27 44 1198 52.7304 1198 63.5V77.8772C1199.49 78.0345 1200.95 78.2 1202.39 78.3739C1221.25 80.6465 1236.48 84.3435 1247.59 89.5301C1258.69 94.7149 1265.75 101.425 1268.11 109.758C1270.48 118.091 1268 127.508 1261.28 137.755C1254.56 148.006 1243.54 159.155 1228.7 170.999C1226.55 172.711 1224.32 174.437 1222.02 176.179C1224.19 176.571 1226.31 176.978 1228.38 177.399C1239.91 179.736 1250.01 182.506 1258.55 185.715C1262.63 179.275 1269.82 175 1278 175C1290.7 175 1301 185.297 1301 198C1301 205.552 1297.36 212.254 1291.74 216.447C1292.41 224.234 1289.12 232.57 1282.33 241.302C1274.81 250.982 1262.94 261.214 1247.19 271.832C1234.28 280.536 1218.75 289.511 1200.84 298.663C1218.41 302.131 1234.04 306.012 1247.53 310.29C1265.63 316.033 1279.9 322.5 1289.85 329.663C1299.8 336.824 1305.48 344.731 1306.26 353.358C1307.03 361.986 1302.84 370.778 1294.33 379.595C1285.82 388.415 1272.92 397.319 1256.13 406.192C1222.54 423.941 1173.25 441.623 1111.9 458.257C989.213 491.527 818.224 520.634 628.015 537.698C437.807 554.762 264.368 556.554 137.713 545.652C74.3904 540.202 22.7374 531.577 -13.4755 520.09C-31.5798 514.347 -45.8545 507.88 -55.8026 500.717C-65.7474 493.556 -71.433 485.649 -72.207 477.022C-72.981 468.394 -68.7934 459.602 -60.282 450.785C-51.7678 441.965 -38.872 433.061 -22.079 424.187C-20.7589 423.49 -19.4147 422.793 -18.0464 422.095C11.5929 399.563 54.6059 374.612 108.187 348.595C222.542 293.069 385.125 232.644 568.834 180.475C628.369 163.568 686.472 148.565 742.123 135.57C741.389 132.5 741 129.295 741 126C741 103.356 759.356 85 782 85C801.868 85 818.436 99.1323 822.198 117.893C906.717 100.352 983.725 88.0472 1049.09 81.3992C1090.82 77.1541 1127.82 75.2145 1159 75.6936V63.5ZM1159 93.5V76.6937C1127.88 76.2146 1090.91 78.1501 1049.19 82.3941C983.86 89.0387 906.879 101.339 822.383 118.876C822.788 121.19 823 123.57 823 126C823 148.644 804.644 167 782 167C763 167 747.019 154.076 742.367 136.54C686.728 149.532 628.635 164.532 569.107 181.437C385.437 233.595 222.912 294.001 108.624 349.495C57.673 374.234 16.3267 397.989 -13.0289 419.592C-10.3792 418.297 -7.64733 417.002 -4.8348 415.709C25.6834 397.576 66.6671 378.477 116.067 359.207C234.498 313.009 401.394 265.786 588.688 228.482C720.54 202.221 844.939 184.374 951.375 175.165C954.235 153.069 973.124 136 996 136C1016.82 136 1034.33 150.133 1039.47 169.327C1051.78 168.788 1063.74 168.395 1075.33 168.149C1134.6 166.888 1184.07 169.46 1220.67 175.938C1223.24 174.013 1225.7 172.106 1228.07 170.217C1242.88 158.404 1253.8 147.331 1260.44 137.207C1267.09 127.079 1269.41 117.968 1267.15 110.031C1264.9 102.093 1258.14 95.5609 1247.16 90.4362C1236.19 85.3132 1221.08 81.6334 1202.27 79.3667C1200.87 79.1975 1199.44 79.0362 1198 78.8828V93.5C1198 104.27 1189.27 113 1178.5 113C1167.73 113 1159 104.27 1159 93.5ZM951.255 176.18C951.086 177.763 951 179.372 951 181C951 205.853 971.147 226 996 226C1020.85 226 1041 205.853 1041 181C1041 177.319 1040.56 173.741 1039.72 170.317C1051.96 169.783 1063.84 169.394 1075.35 169.149C1134.1 167.899 1183.16 170.418 1219.57 176.76C1190.13 198.693 1148.17 222.884 1096.24 248.099C1074.51 258.651 1051.04 269.381 1026 280.198C908.71 274.915 763.089 278.592 606.035 292.682C415.826 309.746 244.837 338.853 122.146 372.123C75.0636 384.891 35.0793 398.275 3.84551 411.833C33.297 395.162 71.3395 377.728 116.431 360.139C234.792 313.967 401.629 266.759 588.883 229.463C720.624 203.224 844.91 185.389 951.255 176.18ZM1255 198C1255 193.846 1256.1 189.949 1258.03 186.586C1249.59 183.43 1239.6 180.694 1228.19 178.379C1225.83 177.901 1223.41 177.441 1220.93 176.999C1191.37 199.136 1149.08 223.557 1096.68 248.998C1075.48 259.292 1052.62 269.755 1028.28 280.302C1052.2 281.406 1074.94 282.886 1096.34 284.728C1135.37 288.087 1169.96 292.653 1199.25 298.351C1217.61 289.015 1233.49 279.865 1246.63 271.003C1262.34 260.412 1274.11 250.249 1281.54 240.688C1288.07 232.287 1291.21 224.4 1290.79 217.122C1287.13 219.571 1282.73 221 1278 221C1265.3 221 1255 210.703 1255 198ZM1023.9 281.105C907.02 275.96 762.229 279.674 606.124 293.678C415.955 310.738 245.027 339.837 122.408 373.088C70.8897 387.059 27.9161 401.757 -4.3693 416.596C-10.3975 420.179 -16.0146 423.723 -21.2049 427.223C-25.6632 430.229 -29.8044 433.2 -33.6194 436.134C-43.2283 444.691 -50.6018 452.805 -55.5751 460.386C-62.2187 470.514 -64.5365 479.625 -62.2824 487.562C-60.0284 495.5 -53.2683 502.032 -42.2932 507.157C-31.3218 512.28 -16.2109 515.96 2.59676 518.226C40.2075 522.759 92.4787 521.627 155.681 515.199C282.077 502.343 452.092 468.315 635.762 416.156C783.53 374.193 917.612 326.892 1023.9 281.105ZM-23.1526 427.336C-22.6931 427.022 -22.2302 426.708 -21.764 426.394C-18.9561 424.501 -16.0242 422.595 -12.9706 420.677C-14.5129 421.433 -16.027 422.189 -17.5126 422.946C-19.4504 424.42 -21.3307 425.883 -23.1526 427.336ZM-22.5022 425.544C-22.947 425.895 -23.3884 426.245 -23.8264 426.594C-27.5466 429.562 -31.0261 432.486 -34.2576 435.363C-43.9167 442.792 -51.5228 449.999 -56.9041 456.924C-64.424 466.6 -67.6475 475.789 -65.9554 484.285C-65.0749 488.706 -62.8928 492.79 -59.501 496.545C-66.6284 490.416 -70.5889 483.867 -71.211 476.932C-71.9483 468.714 -67.9752 460.194 -59.5626 451.48C-51.3024 442.923 -38.8149 434.237 -22.5022 425.544ZM-21.6973 516.278C-18.9608 517.249 -16.1188 518.202 -13.1731 519.137C22.9366 530.591 74.505 539.208 137.799 544.656C264.379 555.551 437.757 553.762 627.926 536.702C818.095 519.642 989.023 490.543 1111.64 457.292C1172.96 440.665 1222.17 423.007 1255.66 405.308C1272.41 396.458 1285.2 387.612 1293.61 378.9C1302.03 370.186 1306 361.666 1305.26 353.448C1304.52 345.229 1299.1 337.553 1289.27 330.475C1279.44 323.399 1265.28 316.971 1247.22 311.243C1233.46 306.877 1217.44 302.922 1199.39 299.399C1173.89 312.346 1143.66 325.641 1109.36 339.019C990.931 385.217 824.034 432.44 636.74 469.743C449.447 507.047 277.194 527.373 150.1 530.077C86.557 531.428 34.2779 528.375 -2.95564 520.826C-9.70049 519.459 -15.9556 517.943 -21.6973 516.278ZM1197.79 299.088C1168.83 293.513 1134.7 289.034 1096.25 285.724C1074.26 283.831 1050.85 282.321 1026.19 281.207C919.55 327.269 784.711 374.897 636.035 417.118C452.327 469.287 282.252 503.331 155.782 516.194C92.551 522.625 40.1953 523.765 2.47711 519.219C-7.81097 517.979 -17.0191 516.315 -25.0673 514.217C-18.3946 516.31 -10.9452 518.186 -2.75694 519.846C34.3706 527.374 86.5647 530.428 150.078 529.077C277.098 526.375 449.291 506.059 636.545 468.763C823.8 431.467 990.636 384.258 1109 338.087C1142.76 324.915 1172.58 311.831 1197.79 299.088ZM-61.0795 492.976C-62.0129 491.337 -62.7366 489.623 -63.2444 487.835C-65.6108 479.502 -63.1328 470.085 -56.4112 459.838C-53.3424 455.159 -49.38 450.294 -44.5672 445.26C-49.1535 449.449 -53.0124 453.546 -56.1145 457.537C-63.5472 467.101 -66.5864 475.997 -64.9747 484.089C-64.3539 487.207 -63.05 490.169 -61.0795 492.976Z" stroke="url(#paint0_linear_2_1297)" stroke-opacity="0.5" stroke-width="4" mask="url(#path-2-inside-1_2_1297)"/>
</g>
<defs>
<linearGradient id="paint0_linear_2_1297" x1="1216.5" y1="110.5" x2="486.5" y2="314" gradientUnits="userSpaceOnUse">
<stop stop-color="white"/>
<stop offset="0.637706" stop-color="white"/>
<stop offset="0.932442" stop-color="white" stop-opacity="0"/>
</linearGradient>
</defs>
</svg>
