<svg width="167" height="49" viewBox="0 0 167 49" fill="none" xmlns="http://www.w3.org/2000/svg">
<path fill-rule="evenodd" clip-rule="evenodd" d="M164.588 27.3424C165.588 26.3134 166 25.3661 166 24.5003C166 23.6345 165.588 22.6873 164.588 21.6582C163.585 20.6255 162.054 19.5811 159.994 18.5555C155.879 16.5063 149.859 14.6327 142.338 13.0488C127.313 9.88438 106.51 7.91936 83.5 7.91936C60.4897 7.91936 39.6867 9.88438 24.6617 13.0488C17.141 14.6327 11.1212 16.5063 7.00583 18.5555C4.94628 19.5811 3.41526 20.6255 2.41193 21.6582C1.41206 22.6873 1 23.6345 1 24.5003C1 25.3661 1.41206 26.3134 2.41193 27.3424C3.41526 28.3751 4.94628 29.4196 7.00583 30.4451C11.1212 32.4943 17.141 34.3679 24.6617 35.9518C39.6867 39.1162 60.4897 41.0813 83.5 41.0813C106.51 41.0813 127.313 39.1162 142.338 35.9518C149.859 34.3679 155.879 32.4943 159.994 30.4451C162.054 29.4196 163.585 28.3751 164.588 27.3424ZM83.5 42.0862C129.616 42.0862 167 34.2127 167 24.5003C167 14.7879 129.616 6.91445 83.5 6.91445C37.3842 6.91445 0 14.7879 0 24.5003C0 34.2127 37.3842 42.0862 83.5 42.0862Z" fill="#152F35"/>
<path fill-rule="evenodd" clip-rule="evenodd" d="M163.848 35.8439C164.95 34.9255 165.458 34.0267 165.548 33.1657C165.638 32.3046 165.327 31.3193 164.439 30.1908C163.549 29.0584 162.135 27.8588 160.193 26.6226C156.314 24.1523 150.522 21.6566 143.207 19.2914C128.594 14.5661 108.109 10.4267 85.2247 8.00963C62.3404 5.5926 41.4469 5.36168 26.1751 6.93049C18.5309 7.71576 12.3492 8.94681 8.04319 10.5525C5.88825 11.3561 4.25697 12.234 3.15172 13.1556C2.05029 14.074 1.54196 14.9728 1.45189 15.8338C1.36183 16.6949 1.67311 17.6802 2.56046 18.8087C3.45088 19.9411 4.86486 21.1407 6.80646 22.3769C10.6861 24.8472 16.4781 27.3429 23.7928 29.7081C38.4063 34.4334 58.8909 38.5728 81.7752 40.9899C104.66 43.4069 125.553 43.6378 140.825 42.069C148.469 41.2837 154.651 40.0527 158.957 38.447C161.112 37.6434 162.743 36.7655 163.848 35.8439ZM81.6707 41.9893C127.534 46.8333 165.532 42.9299 166.543 33.2707C167.553 23.6115 131.192 11.8543 85.3292 7.01023C39.466 2.16617 1.46764 6.06961 0.457373 15.7288C-0.552893 25.388 35.8076 37.1452 81.6707 41.9893Z" fill="#152F35"/>
<path fill-rule="evenodd" clip-rule="evenodd" d="M162.228 44.2219C163.419 43.4242 164.018 42.5838 164.197 41.7369C164.376 40.89 164.169 39.8773 163.404 38.6618C162.636 37.4421 161.355 36.1006 159.553 34.6672C155.951 31.8029 150.45 28.7125 143.422 25.5919C129.38 19.3575 109.438 13.089 86.9305 8.28138C64.423 3.47379 43.6681 1.04946 28.3168 1.00551C20.6327 0.983517 14.3568 1.55849 9.90737 2.70307C7.68065 3.27588 5.96699 3.97765 4.77193 4.7781C3.581 5.5758 2.98196 6.41622 2.80283 7.26313C2.62369 8.11004 2.83077 9.12265 3.59588 10.3382C4.36363 11.5579 5.64509 12.8994 7.44746 14.3328C11.0489 17.1971 16.5496 20.2875 23.5782 23.4081C37.6201 29.6425 57.562 35.911 80.0695 40.7186C102.577 45.5262 123.332 47.9505 138.683 47.9945C146.367 48.0165 152.643 47.4415 157.093 46.2969C159.319 45.7241 161.033 45.0224 162.228 44.2219ZM79.8615 41.7016C124.97 51.3366 163.166 51.446 165.175 41.9458C167.185 32.4456 132.247 16.9335 87.1385 7.29844C42.0304 -2.33662 3.83414 -2.44596 1.82468 7.0542C-0.184783 16.5544 34.7535 32.0665 79.8615 41.7016Z" fill="#152F35"/>
</svg>
