<svg width="134" height="88" viewBox="0 0 134 88" fill="none" xmlns="http://www.w3.org/2000/svg">
<g clip-path="url(#clip0_2_787)">
<path fill-rule="evenodd" clip-rule="evenodd" d="M37.01 75.17C35.54 75.39 34.03 75.5 32.5 75.5C15.1 75.5 1 61.4 1 44C1 26.6 15.1 12.5 32.5 12.5C34.03 12.5 35.54 12.61 37.01 12.83C37.43 12.88 37.83 12.95 38.24 13.02C38.54 12.74 38.85 12.46 39.16 12.18C38.75 12.09 38.34 12.02 37.92 11.95C36.16 11.65 34.35 11.5 32.5 11.5C14.55 11.5 0 26.05 0 44C0 61.95 14.55 76.5 32.5 76.5C34.35 76.5 36.16 76.34 37.92 76.05C38.34 75.98 38.75 75.9 39.16 75.82C38.85 75.54 38.54 75.26 38.24 74.98C37.83 75.05 37.43 75.12 37.01 75.17Z" fill="#152F35"/>
<path fill-rule="evenodd" clip-rule="evenodd" d="M101.5 11.5C99.65 11.5 97.84 11.65 96.08 11.95C95.66 12.02 95.25 12.09 94.84 12.18C95.15 12.46 95.46 12.74 95.76 13.02C96.17 12.95 96.57 12.88 96.99 12.83C98.46 12.61 99.97 12.5 101.5 12.5C118.9 12.5 133 26.6 133 44C133 61.4 118.9 75.5 101.5 75.5C99.97 75.5 98.46 75.39 96.99 75.17C96.57 75.12 96.17 75.05 95.76 74.98C95.46 75.26 95.15 75.54 94.84 75.82C95.25 75.9 95.66 75.98 96.08 76.05C97.84 76.34 99.65 76.5 101.5 76.5C119.45 76.5 134 61.95 134 44C134 26.05 119.45 11.5 101.5 11.5Z" fill="#152F35"/>
<path fill-rule="evenodd" clip-rule="evenodd" d="M96.99 12.83C96.69 12.53 96.39 12.24 96.08 11.95C88.42 4.84 78.22 0.5 67 0.5C55.78 0.5 45.58 4.84 37.92 11.95C37.61 12.24 37.31 12.53 37.01 12.83C28.98 20.73 24 31.78 24 44C24 56.22 28.98 67.27 37.01 75.17C37.31 75.47 37.61 75.76 37.92 76.05C45.58 83.16 55.78 87.5 67 87.5C78.22 87.5 88.42 83.16 96.08 76.05C96.39 75.76 96.69 75.47 96.99 75.17C105.02 67.27 110 56.22 110 44C110 31.78 105.02 20.73 96.99 12.83ZM95.76 74.98C95.46 75.26 95.15 75.54 94.84 75.82C87.43 82.47 77.68 86.5 67 86.5C56.32 86.5 46.57 82.47 39.16 75.82C38.85 75.54 38.54 75.26 38.24 74.98C30.09 67.23 25 56.22 25 44C25 31.78 30.09 20.77 38.24 13.02C38.54 12.74 38.85 12.46 39.16 12.18C46.57 5.53 56.32 1.5 67 1.5C77.68 1.5 87.43 5.53 94.84 12.18C95.15 12.46 95.46 12.74 95.76 13.02C103.91 20.77 109 31.78 109 44C109 56.22 103.91 67.23 95.76 74.98Z" fill="#152F35"/>
</g>
<defs>
<clipPath id="clip0_2_787">
<rect width="134" height="87" fill="white" transform="translate(0 0.5)"/>
</clipPath>
</defs>
</svg>
