<svg width="22" height="22" viewBox="0 0 22 22" fill="none" xmlns="http://www.w3.org/2000/svg">
<path d="M21.1133 15.92V18.92C21.1145 19.1985 21.0574 19.4742 20.9458 19.7293C20.8343 19.9845 20.6706 20.2136 20.4654 20.4019C20.2602 20.5901 20.0179 20.7335 19.7541 20.8227C19.4903 20.9119 19.2107 20.9451 18.9333 20.92C15.8562 20.5856 12.9003 19.5341 10.3033 17.85C7.88716 16.3147 5.83867 14.2662 4.30334 11.85C2.61331 9.24121 1.56158 6.271 1.23334 3.18C1.20835 2.90347 1.24121 2.62476 1.32984 2.36163C1.41846 2.09849 1.56091 1.85669 1.7481 1.65162C1.9353 1.44655 2.16314 1.28271 2.41713 1.17052C2.67111 1.05834 2.94568 1.00026 3.22334 1H6.22334C6.70864 0.995225 7.17913 1.16708 7.5471 1.48353C7.91507 1.79999 8.15541 2.23945 8.22334 2.72C8.34996 3.68007 8.58479 4.62273 8.92334 5.53C9.05788 5.88793 9.087 6.27692 9.00724 6.65088C8.92749 7.02485 8.7422 7.36811 8.47334 7.64L7.20334 8.91C8.62689 11.4135 10.6998 13.4864 13.2033 14.91L14.4733 13.64C14.7452 13.3711 15.0885 13.1859 15.4625 13.1061C15.8364 13.0263 16.2254 13.0555 16.5833 13.19C17.4906 13.5286 18.4333 13.7634 19.3933 13.89C19.8791 13.9585 20.3227 14.2032 20.6399 14.5775C20.957 14.9518 21.1255 15.4296 21.1133 15.92Z" stroke="#152F35" stroke-width="1.4" stroke-linecap="round" stroke-linejoin="round"/>
</svg>
