<svg width="153" height="94" viewBox="0 0 153 94" fill="none" xmlns="http://www.w3.org/2000/svg">
<path fill-rule="evenodd" clip-rule="evenodd" d="M139.499 31.2673C131.617 27.1048 120.659 24.5 108.5 24.5C96.3411 24.5 85.3829 27.1048 77.5007 31.2673C69.5732 35.4537 65 41.0649 65 47C65 52.9351 69.5732 58.5463 77.5007 62.7327C85.3829 66.8952 96.3411 69.5 108.5 69.5C120.659 69.5 131.617 66.8952 139.499 62.7327C147.427 58.5463 152 52.9351 152 47C152 41.0649 147.427 35.4537 139.499 31.2673ZM153 47C153 34.0213 133.077 23.5 108.5 23.5C83.9233 23.5 64 34.0213 64 47C64 59.9787 83.9233 70.5 108.5 70.5C133.077 70.5 153 59.9787 153 47Z" fill="#152F35"/>
<path fill-rule="evenodd" clip-rule="evenodd" d="M134.594 26.478C123.485 18.8966 107.778 12.5 89.3986 12.5C70.916 12.5 54.2328 16.4481 42.2066 22.7825C30.1344 29.1411 23 37.7525 23 47C23 56.2475 30.1344 64.8589 42.2066 71.2175C54.2328 77.5519 70.916 81.5 89.3986 81.5C107.778 81.5 123.485 75.1034 134.594 67.522C140.149 63.7309 144.534 59.6574 147.519 55.9659C149.012 54.1198 150.142 52.3842 150.895 50.8414C151.654 49.2863 152 47.9884 152 47C152 46.0115 151.654 44.7137 150.895 43.1586C150.142 41.6157 149.012 39.8802 147.519 38.0341C144.534 34.3426 140.149 30.2691 134.594 26.478ZM153 47C153 37.4054 126.622 11.5 89.3986 11.5C52.1754 11.5 22 27.3939 22 47C22 66.6061 52.1754 82.5 89.3986 82.5C126.622 82.5 153 56.5946 153 47Z" fill="#152F35"/>
<path fill-rule="evenodd" clip-rule="evenodd" d="M139.208 20.3947C129.784 10.1739 114.237 1.5 89.7222 1.5C65.0728 1.5 42.8065 6.68023 26.7392 15.0074C10.6218 23.3605 0.999999 34.7234 1 47C1 59.2766 10.6218 70.6395 26.7392 78.9926C42.8065 87.3198 65.0728 92.5 89.7222 92.5C138.736 92.5 152 61.618 152 48.898C152 42.517 148.671 30.6569 139.208 20.3947ZM153 48.898C153 35.6122 139.274 0.499998 89.7222 0.5C40.17 0.500002 -1.12256e-06 21.3188 0 47C1.12256e-06 72.6812 40.17 93.5 89.7222 93.5C139.274 93.5 153 62.1837 153 48.898Z" fill="#152F35"/>
</svg>
